<svg width="133" height="129" viewBox="0 0 133 129" fill="none" xmlns="http://www.w3.org/2000/svg">
<path d="M68.2898 83.0602L82.1547 49.2434H132.255L118.39 83.0602H68.2898Z" stroke="white"/>
<path d="M64.1118 77.4895L77.9767 43.6727H128.077L114.212 77.4895H64.1118Z" fill="white" stroke="white"/>
<path d="M103.058 60.233L92.0903 66.565L92.0903 53.9011L103.058 60.233Z" fill="black"/>
<path d="M4.92337 83.0602L18.7882 49.2434H68.8881L55.0232 83.0602H4.92337Z" stroke="white"/>
<path d="M0.745394 77.4895L14.6103 43.6727H64.7101L50.8452 77.4895H0.745394Z" fill="white" stroke="white"/>
<path d="M25.0681 60.233L36.0354 66.565L36.0354 53.9011L25.0681 60.233Z" fill="black"/>
<path d="M52.2742 39.8874L66.1391 6.07068H116.239L102.374 39.8874H52.2742Z" stroke="white"/>
<path d="M48.0962 34.3168L61.9611 0.5H112.061L98.1961 34.3168H48.0962Z" fill="white" stroke="white"/>
<path d="M79.7305 9.74872L73.3985 20.716L86.0624 20.716L79.7305 9.74872Z" fill="black"/>
<path d="M20.939 128.322L34.8039 94.5052H84.9037L71.0388 128.322H20.939Z" stroke="white"/>
<path d="M16.761 122.751L30.6259 88.9346H80.7257L66.8609 122.751H16.761Z" fill="white" stroke="white"/>
<path d="M48.3953 112.806L42.0633 101.839L54.7272 101.839L48.3953 112.806Z" fill="black"/>
</svg>
