<svg width="170" height="155" viewBox="0 0 170 155" fill="none" xmlns="http://www.w3.org/2000/svg">
<path fill-rule="evenodd" clip-rule="evenodd" d="M100.316 30.5689C100.978 29.6839 101.42 29.9051 101.641 29.9051C102.524 30.1264 102.303 31.2327 102.082 32.7816C102.082 33.6666 102.524 34.3304 102.303 35.658C102.303 38.0919 100.978 39.1982 99.8744 41.1896C99.6537 41.6322 98.9914 41.8534 98.3291 41.6322L99.4329 31.6753L100.316 30.5689Z" fill="#E5A278"/>
<path fill-rule="evenodd" clip-rule="evenodd" d="M69.4093 30.7902C68.747 29.9051 68.3055 30.1264 68.0847 30.1264C67.2016 30.3477 67.4224 31.6752 67.6432 33.0028C67.6432 33.8879 67.2016 34.5517 67.4224 35.8793C67.4224 38.3132 68.747 39.4195 69.8508 41.4109C70.0716 41.8534 70.7338 42.0747 71.3961 41.8534L70.2923 31.8965L69.4093 30.7902Z" fill="#EAAF87"/>
<path fill-rule="evenodd" clip-rule="evenodd" d="M106.056 66.4137C112.016 59.997 120.626 57.3419 128.794 60.2183C131.443 51.8103 136.742 48.0488 146.455 50.9252C139.391 42.2959 139.612 27.2499 133.651 24.5947C132.547 24.1522 132.547 25.2585 131.002 25.4798C129.236 25.9223 129.015 26.1436 127.249 25.9223C125.483 26.3649 125.262 26.3649 123.496 26.1436C122.392 26.8074 121.951 28.3562 120.405 29.02C117.977 30.3476 115.769 29.02 116.873 25.9223C114.665 23.4884 113.562 22.6034 113.341 21.497C112.899 19.2844 115.328 15.9654 117.094 13.5315C117.756 12.6465 119.301 11.7614 120.847 12.6465C122.392 11.7614 123.275 11.3189 125.041 12.4252C126.145 11.7614 127.028 11.5401 128.573 12.4252C131.664 10.8763 134.976 12.4252 137.183 13.7528C138.949 14.8591 139.832 15.5229 141.378 17.0718C154.182 27.6924 164.116 37.2068 168.09 54.0229C168.752 56.6781 169.194 57.3419 168.973 58.2269C168.531 60.2183 166.545 61.7672 164.116 65.5287C156.831 76.1493 146.676 87.8764 136.3 90.7528C136.3 111.773 129.236 111.773 119.081 127.483C117.094 137.218 116.432 144.963 116.211 154.034H80.6681L83.3172 50.2614L98.1083 49.1551C97.446 52.9166 97.6668 59.3333 98.3291 61.1034C99.4329 64.6436 100.757 64.6436 106.056 66.4137Z" fill="#E5A278"/>
<path fill-rule="evenodd" clip-rule="evenodd" d="M168.752 56.8994C168.973 57.3419 168.973 57.7844 168.973 58.2269C168.531 60.2183 166.545 61.7672 164.116 65.5287C156.831 76.1494 146.676 87.8764 136.3 90.7528C136.3 111.773 129.236 111.773 119.081 127.483C117.094 137.218 116.432 144.963 116.211 154.034H111.796C112.458 144.741 114.003 136.997 112.237 125.27C121.951 116.862 134.534 104.25 129.457 93.6292C127.911 90.5315 123.496 89.2039 119.081 86.1062L120.626 83.0086C131.223 86.1063 132.547 86.1062 143.365 81.2384C150.87 77.9195 156.831 72.6091 163.012 63.5373C160.363 63.7585 156.61 63.7585 152.195 62.2097C159.922 62.2097 166.986 61.3246 168.752 57.3419V56.8994Z" fill="#D9966C"/>
<path fill-rule="evenodd" clip-rule="evenodd" d="M146.455 50.9253C139.391 42.2959 139.612 27.25 133.651 24.5948C132.547 24.1523 132.547 25.2586 131.002 25.4799C129.236 25.9224 129.015 26.1436 127.249 25.9224C125.483 26.3649 125.262 26.3649 123.496 26.1436C122.392 26.8074 121.951 28.3563 120.405 29.0201C117.977 30.3477 115.769 29.0201 116.873 25.9224C114.666 23.4885 113.562 22.6034 113.341 21.4971C112.9 19.5057 114.886 16.408 116.652 14.1954L116.432 14.8592C116.432 14.8592 114.886 17.9569 114.003 19.727C113.341 21.4971 113.783 21.7184 115.107 23.2672C115.99 24.3735 117.536 26.3649 118.86 25.9224C119.964 25.4799 119.302 24.5948 118.86 23.7097C118.419 22.8247 117.977 21.9396 117.756 21.2758C117.536 20.1695 118.198 19.2845 119.302 17.2931C118.86 18.8419 118.198 20.8333 118.419 21.4971C119.081 22.8247 119.743 24.8161 120.847 25.7011C121.068 25.9224 122.613 25.9224 122.834 25.2586C123.055 24.3735 121.951 21.9396 122.613 20.1695C123.275 19.0632 123.938 17.9569 124.6 16.8505C123.938 20.612 123.717 23.0459 123.938 24.5948C124.158 26.1436 126.145 25.7011 126.808 25.2586C127.911 24.1523 127.249 20.3908 128.353 17.2931C127.691 21.2758 127.691 25.2586 130.119 24.8161C132.106 24.3735 130.56 21.9396 131.664 19.2845C132.768 23.7097 133.651 22.3822 134.755 23.0459C141.819 27.25 142.04 46.5 160.805 58.8908C155.948 58.227 149.546 54.4655 146.455 50.9253Z" fill="#D9966C"/>
<path fill-rule="evenodd" clip-rule="evenodd" d="M63.8902 66.4137C57.9296 59.997 49.3199 57.3418 41.1517 60.2183C38.5026 51.8102 33.2043 48.0487 23.4908 50.9252C30.3344 42.2958 30.3344 27.2499 36.295 24.5947C37.3988 24.1522 37.3988 25.2585 38.9441 25.4798C40.7102 25.9223 40.931 26.1435 42.6971 25.9223C44.4632 26.3648 44.6839 26.3648 46.45 26.1435C47.5538 26.8073 47.9954 28.3562 49.5407 29.02C51.9691 30.1263 54.1767 28.7987 53.0729 25.701C55.2805 23.2671 56.3843 22.3821 56.6051 21.2757C57.0466 19.0631 54.6182 15.7441 52.8521 13.3102C52.1898 12.4252 50.6445 11.5401 49.0992 12.4252C47.5538 11.3188 46.6708 11.0976 44.9047 11.9826C43.8009 11.3188 42.9178 11.0976 41.3725 11.9826C38.2818 10.4338 34.9704 11.9826 32.7628 13.3102C30.9967 14.4165 30.1136 15.0803 28.5683 16.6292C15.7641 27.6924 5.82978 36.9855 1.85606 54.0229C1.19378 56.678 0.752253 57.3418 0.973015 58.2269C1.41454 60.2183 3.4014 61.7671 5.82978 65.5286C13.1149 76.1493 23.27 87.8763 33.6458 90.7527C33.6458 111.773 40.7102 111.773 50.8653 127.483C52.8521 137.218 53.5144 144.963 53.7352 154.034H84.8626V50.4826L72.0584 49.155C72.7207 52.9165 71.6169 61.3246 70.9546 62.2096C69.8508 64.201 68.0847 65.3073 63.8902 66.4137Z" fill="#EAAF87"/>
<path fill-rule="evenodd" clip-rule="evenodd" d="M68.5262 64.6437C69.63 64.2012 70.7338 63.0948 71.1753 62.2098C72.2791 59.1121 72.2791 54.023 72.2791 50.704L84.8626 51.3678L97.8876 50.704C97.8876 50.9253 97.6668 51.3678 97.6668 51.8104C97.6668 52.2529 97.6668 52.9167 97.6668 53.1379C97.2253 53.8017 96.563 54.4655 95.9007 54.9081C95.2384 55.5719 94.5761 56.0144 94.1346 56.6782C93.2515 57.7845 90.8232 60.2184 89.9401 61.1035C88.174 62.8736 85.3041 63.9799 81.9927 64.6437C78.4605 65.5288 71.3961 65.5288 68.5262 64.6437Z" fill="#E5A278"/>
<path fill-rule="evenodd" clip-rule="evenodd" d="M84.8627 51.3678L97.8876 50.704C97.6669 51.5891 97.6669 52.0316 97.6669 53.1379C97.2253 53.8017 96.5631 54.4655 95.9008 54.9081C95.2385 55.5719 94.5762 56.0144 94.1347 56.6782C93.2516 57.7845 90.8232 60.2184 89.9402 61.1035C88.6156 62.4311 86.8495 63.3161 84.6419 63.9799L84.8627 51.3678Z" fill="#D9966C"/>
<path fill-rule="evenodd" clip-rule="evenodd" d="M85.0834 59.3333C82.4342 59.3333 81.3304 59.3333 80.0058 58.6695C78.6813 58.2269 78.2397 56.8994 76.4736 55.1292C74.9283 53.8017 72.4999 52.2528 71.8376 50.704C70.9546 48.7126 71.3961 46.2787 70.9546 43.181C70.5131 40.7471 69.4092 38.5344 69.4092 36.1005C69.4092 33.4453 69.8508 30.7902 69.8508 27.9137C69.8508 22.1609 69.8508 18.6206 73.1622 15.7442C74.0452 14.8591 75.1491 14.4166 76.2529 13.7528H76.4736C76.4736 13.7528 76.4736 13.7528 76.6944 13.7528H76.9152H77.1359H77.3567H77.5774H77.7982C77.7982 13.7528 77.7982 13.7528 78.019 13.7528C78.2397 13.7528 78.2397 13.7528 78.4605 13.5315C84.6418 11.5402 92.1477 12.4252 97.0045 16.1867C100.537 19.0632 100.316 22.6034 100.316 28.3563C100.316 31.2327 100.757 33.8879 100.757 36.543C100.757 38.9769 99.6537 41.1896 99.2121 43.6235C98.7706 46.7212 99.2121 49.1551 98.3291 51.1465C97.6668 52.6953 95.2384 54.0229 93.6931 55.5718C91.927 57.3419 91.4855 58.4482 90.1609 59.112C88.6156 59.3333 87.5117 59.3333 85.0834 59.3333Z" fill="#EAAF87"/>
<path fill-rule="evenodd" clip-rule="evenodd" d="M85.0834 59.3333H84.8626V11.9827C89.2779 11.9827 93.4723 13.3103 96.563 15.7442C100.095 18.6207 99.8744 22.1609 99.8744 27.9138C99.8744 30.7902 100.316 33.4454 100.316 36.1005C100.316 38.5345 99.2122 40.7471 98.7706 43.181C98.3291 46.2787 98.7706 48.7126 97.8876 50.704C97.2253 52.2528 94.7969 53.5804 93.2516 55.1293C91.4855 56.8994 91.044 58.0057 89.7194 58.6695C88.6156 59.3333 87.5118 59.3333 85.0834 59.3333Z" fill="#E5A278"/>
<path fill-rule="evenodd" clip-rule="evenodd" d="M81.3304 28.5775C81.3304 28.3562 81.1096 27.9137 80.6681 27.6924V27.9137C80.2266 27.4712 79.7851 27.2499 79.1228 27.0286C79.5643 27.2499 79.7851 27.6924 80.0058 27.6924C79.5643 27.2499 79.1228 27.0286 78.6813 26.5861C77.1359 25.701 75.8114 25.701 74.0453 25.701C73.1622 25.701 72.7207 25.9223 72.2792 25.9223C72.4999 25.9223 72.9414 25.9223 72.9414 25.9223C72.0584 26.1436 71.1754 27.0286 70.7338 27.9137C71.3961 27.2499 72.2792 26.8074 73.6037 26.8074C74.4868 27.0286 75.1491 27.4712 76.4736 27.9137L76.0321 27.4712C76.6944 27.9137 77.5775 28.3562 78.2397 28.5775C79.3436 29.2413 79.3436 28.7988 80.0058 29.2413C80.4474 29.4625 80.6681 29.4625 80.8889 29.4625C81.5512 29.6838 81.5512 29.2413 81.3304 28.5775Z" fill="#0D0501"/>
<path fill-rule="evenodd" clip-rule="evenodd" d="M87.7326 28.5775C87.7326 28.3562 87.9533 27.9137 88.3948 27.6924V27.9137C88.8364 27.4712 89.2779 27.2499 89.9402 27.0286C89.4987 27.2499 89.2779 27.6924 89.0571 27.6924C89.4987 27.2499 89.9402 27.0286 90.3817 26.5861C91.927 25.701 93.2516 25.701 95.0177 25.701C95.9007 25.701 96.3423 25.9223 96.7838 25.9223C96.563 25.9223 96.1215 25.9223 96.1215 25.9223C97.0046 26.1436 97.8876 27.0286 98.3291 27.9137C97.6668 27.2499 96.7838 26.8074 95.4592 26.8074C94.5762 27.0286 93.9139 27.4712 92.5893 27.9137L93.0308 27.4712C92.3686 27.9137 91.4855 28.135 90.8232 28.5775C89.7194 29.2413 89.7194 28.7988 89.0571 29.2413C88.6156 29.4625 88.3948 29.4625 88.1741 29.4625C87.5118 29.6838 87.5118 29.2413 87.7326 28.5775Z" fill="#0D0501"/>
<path fill-rule="evenodd" clip-rule="evenodd" d="M90.1609 18.6206C86.6287 18.3994 84.4211 17.293 81.1097 18.8419C78.2397 18.1781 74.9283 17.7356 73.8245 18.8419C73.1622 19.5057 72.4999 20.8333 73.383 23.2672L72.0584 21.9396C71.3961 25.0373 71.1754 25.9223 71.3961 29.02L69.8508 27.9137C70.0715 33.2241 70.5131 34.3304 70.7338 39.4195C68.5262 35.4367 69.4093 30.7902 66.9809 29.02C66.5394 22.8246 66.3186 22.6034 67.6432 16.408L66.0978 17.293C66.5394 16.1867 66.9809 15.5229 67.4224 14.6379C66.5394 14.8591 66.0978 15.3017 65.2148 16.1867C66.7601 13.089 69.63 11.7614 71.8376 8.66372C70.7338 8.44246 69.8508 9.10625 69.1885 9.54878C70.7338 6.22981 72.7207 5.78729 75.3698 4.68096C74.7076 3.35338 74.7076 3.57464 74.4868 2.02579C76.4736 4.01717 80.2266 3.57464 82.2135 3.35338C81.3304 2.46832 80.4474 1.80453 80.6681 0.255676C81.3304 1.80453 82.2135 1.80453 83.538 2.24706L82.655 0.919469C85.0834 2.46832 87.0702 3.13211 89.7194 4.01717C91.4855 4.68096 97.8876 8.22119 98.3291 5.34476C98.9914 6.67234 98.5499 7.33614 97.6668 7.77866C98.7706 7.77866 99.4329 7.77866 100.537 7.5574C100.095 7.77866 99.4329 7.99993 98.9914 8.22119C102.965 10.4338 102.303 12.204 102.965 16.8505C102.524 14.8591 102.303 14.4166 101.199 12.6465C101.861 14.6379 102.744 17.0718 102.965 18.6206C103.407 20.8333 102.524 22.8246 102.303 24.5948C102.303 25.4798 102.744 26.3649 102.524 27.0287C102.082 29.2413 101.861 31.0114 101.861 33.2241C101.641 31.8965 101.42 30.7902 101.42 29.2413C100.978 31.8965 100.978 35.2154 98.9914 40.7471C99.2122 38.0919 99.2122 35.8792 98.9914 33.6666C98.9914 31.0114 98.9914 28.135 98.5499 25.0373C97.8876 19.0631 95.68 17.7356 94.1346 17.7356C92.81 17.9568 91.044 18.6206 90.1609 18.6206Z" fill="#301508"/>
<path fill-rule="evenodd" clip-rule="evenodd" d="M86.6288 104.471C106.497 101.595 115.769 93.6292 118.419 67.7413C122.392 65.3074 125.041 65.7499 127.911 59.9971L129.015 60.4396C127.028 65.5287 126.587 66.8563 122.834 69.7327C122.392 78.362 119.964 89.6465 115.99 94.9568C109.367 103.586 98.3292 106.684 86.6288 104.471Z" fill="#D9966C"/>
<path fill-rule="evenodd" clip-rule="evenodd" d="M123.496 67.52C135.417 66.1924 143.365 63.0947 150.208 53.8016L152.416 55.1292C145.351 65.9711 131.443 71.2815 121.73 69.2901L123.496 67.52Z" fill="#D9966C"/>
<path fill-rule="evenodd" clip-rule="evenodd" d="M107.16 100.046C111.575 110.888 113.783 120.181 105.614 129.032C106.939 135.006 106.277 140.316 104.29 143.856C104.29 148.724 104.29 151.6 103.627 154.256H100.316C100.978 152.043 101.199 149.167 101.641 145.184C97.0046 146.511 93.6932 145.848 89.2779 145.184C98.1084 143.414 104.069 144.52 103.627 130.138C98.1084 130.58 93.2517 130.58 87.7326 130.58C101.641 126.155 114.445 124.606 105.173 100.488L107.16 100.046Z" fill="#D9966C"/>
<path fill-rule="evenodd" clip-rule="evenodd" d="M1.19378 56.8993C0.973022 57.5631 0.973022 57.7844 0.973022 58.2269C1.41455 60.2183 3.40141 61.7671 5.82979 65.5286C13.1149 76.1493 23.27 87.8763 33.6458 90.7527C33.6458 111.773 40.7102 111.773 50.8653 127.483C52.8521 137.218 53.5144 144.963 53.7352 154.034H58.1504C57.4881 144.741 55.9428 136.997 57.7089 125.27C47.9954 116.862 35.4119 104.25 40.4894 93.6292C42.0348 90.5315 46.45 89.2039 50.8653 86.1062L49.3199 83.0085C38.7234 86.1062 37.3988 86.1062 26.5814 81.2384C19.0755 77.9194 13.1149 72.6091 6.9336 63.5372C9.58275 63.7585 13.3357 63.7585 17.7509 62.2096C10.0243 62.2096 2.95988 61.3246 1.19378 57.3418V56.8993Z" fill="#E5A278"/>
<path fill-rule="evenodd" clip-rule="evenodd" d="M23.4907 50.9252C30.3343 42.2958 30.3343 27.2499 36.2949 24.5947C37.3987 24.1522 37.3987 25.2585 38.9441 25.4797C40.7102 25.9223 40.9309 26.1435 42.697 25.9223C44.4631 26.3648 44.6839 26.3648 46.45 26.1435C47.5538 26.8073 47.9953 28.3562 49.5406 29.02C51.969 30.1263 54.1767 28.7987 53.0728 25.701C55.2805 23.2671 56.3843 22.382 56.605 21.2757C57.0466 19.2843 55.0597 16.1866 53.2936 13.974L53.5144 14.6378C53.5144 14.6378 55.0597 17.7355 55.9427 19.5056C56.605 21.2757 56.1635 21.497 54.8389 23.0458C53.9559 24.1522 52.4106 26.1435 51.086 25.701C49.9822 25.2585 50.6445 24.3734 51.086 23.4884C51.5275 22.6033 51.969 21.7183 52.1898 21.0545C52.4106 19.9481 51.7483 19.0631 50.6445 17.0717C51.086 18.6206 51.7483 20.6119 51.5275 21.2757C50.8652 22.6033 50.2029 24.5947 49.0991 25.4797C48.8784 25.701 47.333 25.701 47.1123 25.0372C46.8915 24.1522 47.9953 21.7183 47.333 19.9481C46.8915 19.0631 46.2292 17.9568 45.7877 16.6292C46.45 20.3907 46.6707 22.8246 46.45 24.3734C46.2292 25.9223 44.2424 25.4797 43.5801 25.0372C42.4763 23.9309 43.1385 20.1694 42.0347 17.0717C42.697 21.0545 42.697 25.0372 40.2686 24.5947C38.2818 24.1522 39.8271 21.7183 38.7233 19.0631C37.6195 23.4884 36.7364 22.1608 35.6326 22.8246C28.3475 27.4711 27.906 46.7211 9.14117 58.8907C13.9979 58.2269 20.1793 54.4654 23.4907 50.9252Z" fill="#E5A278"/>
<path fill-rule="evenodd" clip-rule="evenodd" d="M83.3173 104.471C63.4487 101.595 54.1767 93.6292 51.5276 67.7413C47.5538 65.3074 44.9047 65.7499 42.0348 59.9971L40.931 60.4396C42.9178 65.5287 43.3594 66.8563 47.1123 69.7327C47.5538 78.362 49.9822 89.6465 53.9559 94.9568C60.5788 103.586 71.6169 106.684 83.3173 104.471Z" fill="#E5A278"/>
<path fill-rule="evenodd" clip-rule="evenodd" d="M46.4501 67.52C34.5289 66.1924 26.5815 63.0947 19.7378 53.8016L17.5302 55.1292C24.5946 65.9711 38.5026 71.2815 48.2162 69.2901L46.4501 67.52Z" fill="#E5A278"/>
<path fill-rule="evenodd" clip-rule="evenodd" d="M62.7863 100.046C58.3711 110.888 56.1635 120.181 64.3317 129.032C63.0071 135.006 63.6694 140.316 65.6563 143.856C65.6563 148.724 65.6563 151.6 66.3185 154.256H69.63C68.9677 152.043 68.7469 149.167 68.3054 145.184C72.9414 146.511 76.2528 145.848 80.6681 145.184C71.8376 143.414 65.877 144.52 66.3185 130.138C71.8376 130.58 76.6944 130.58 82.2134 130.58C68.3054 126.155 55.5012 124.606 64.7732 100.488L62.7863 100.046Z" fill="#E5A278"/>
</svg>
