<svg width="70" height="41" viewBox="0 0 70 41" fill="none" xmlns="http://www.w3.org/2000/svg">
<path d="M4.92337 40.0603L18.7882 6.24353H68.8881L55.0232 40.0603H4.92337Z" stroke="white"/>
<path d="M0.745394 34.4896L14.6103 0.672852H64.7101L50.8452 34.4896H0.745394Z" fill="white" stroke="white"/>
<path d="M28.1218 24V9.78125H31.8816C33.5417 9.78125 34.8634 10.3086 35.8464 11.3633C36.836 12.418 37.3406 13.8633 37.3601 15.6992V18.0039C37.3601 19.8724 36.8653 21.3405 35.8757 22.4082C34.8927 23.4694 33.5352 24 31.8035 24H28.1218ZM30.9929 12.1738V21.6172H31.8523C32.8093 21.6172 33.4832 21.3665 33.8738 20.8652C34.2644 20.3574 34.4695 19.485 34.489 18.248V15.7773C34.489 14.4492 34.3035 13.5247 33.9324 13.0039C33.5613 12.4766 32.9298 12.1999 32.0378 12.1738H30.9929Z" fill="black"/>
</svg>
