<svg width="16" height="51" viewBox="0 0 16 51" fill="none" xmlns="http://www.w3.org/2000/svg">
<g clip-path="url(#clip0)">
<path fill-rule="evenodd" clip-rule="evenodd" d="M7.98542 0C4.99764 0 5.05348 1.49768 5.77949 4.28284C6.17041 5.7017 5.24895 4.80835 5.08141 6.20093C4.91387 7.59351 5.66779 7.27821 5.66779 8.22411C5.66779 9.17002 5.27687 16.0804 3.74109 19.4173C-0.251928 28.2983 -1.39678 39.6229 2.00985 49.3447C2.48455 50.711 3.37809 50.7372 3.48978 50.8949C5.66779 50.9474 6.84057 51 8.01334 51C9.18612 51 10.331 50.9737 12.5369 50.8949C12.6486 50.7372 13.5142 50.711 14.0168 49.3447C17.4235 39.6229 16.2786 28.2983 12.2297 19.4436C10.7219 16.1066 10.303 9.56414 10.303 8.61824C10.303 7.67233 11.5037 7.75116 11.3362 6.35858C11.1687 4.966 9.80043 6.06955 10.1634 4.6507C10.8894 1.81298 11.0011 0 7.98542 0Z" fill="#2A3D03"/>
<path fill-rule="evenodd" clip-rule="evenodd" d="M6.56192 0.289062C5.50084 0.84084 5.38914 2.20715 5.80799 4.28288C6.11515 5.70174 5.24953 4.80838 5.10991 6.20096C4.97029 7.59354 5.6963 7.27824 5.6963 8.22415C5.6963 9.17005 5.89176 16.0804 4.71899 19.4173C1.56366 28.2721 0.698043 39.5966 3.32282 49.3184C3.54621 49.949 4.46768 49.7914 4.41183 49.3184C2.51305 39.5441 3.18321 28.2195 5.52876 19.3385C6.4223 15.949 6.28268 8.93357 6.28268 7.9614C6.28268 6.98922 5.75214 7.33079 5.83591 5.91194C5.94761 4.49308 6.58984 5.43898 6.36645 3.96758C6.08722 2.23342 6.11515 0.998491 6.56192 0.289062Z" fill="#395403"/>
<path fill-rule="evenodd" clip-rule="evenodd" d="M9.38227 50.9737C10.192 50.9475 11.1694 50.9212 12.5097 50.8949C12.6214 50.7373 13.487 50.711 13.9896 49.3447C17.3962 39.6229 16.2514 28.2983 12.2025 19.4436C10.6947 16.1067 10.5271 9.32767 10.5271 8.38177C10.5271 7.43586 11.4486 7.75117 11.281 6.35858C11.1135 4.966 10.0245 5.88563 10.3875 4.4405C11.0018 2.15457 11.1694 0.761985 9.41019 0.315308C8.18157 0.761985 7.93026 2.02319 8.34911 4.30913C8.62834 5.72798 7.84649 4.83463 7.7348 6.22721C7.62311 7.61979 8.26534 7.30449 8.26534 8.25039C8.26534 9.1963 8.43288 16.1067 7.3718 19.4436C4.52363 28.3246 3.74178 39.6492 6.11525 49.3447C6.45033 50.711 7.06464 50.7373 7.14841 50.8949C8.12572 50.9212 8.8238 50.9475 9.38227 50.9737Z" fill="#395403"/>
<path fill-rule="evenodd" clip-rule="evenodd" d="M12.6493 49.3184C15.302 39.6229 14.4084 28.2983 11.2531 19.4173C10.0803 16.0804 10.2758 9.17005 10.2758 8.22415C10.2758 7.27824 11.0018 7.59354 10.8622 6.20096C10.7226 4.80838 9.88488 5.72801 10.1641 4.28288C10.6109 2.23342 10.4992 0.867115 9.43811 0.289062C9.88488 0.998491 9.9128 2.23342 9.6615 3.96758C9.43811 5.41271 10.0803 4.49308 10.192 5.91194C10.3037 7.33079 9.74527 6.98922 9.74527 7.9614C9.74527 8.93357 9.60565 15.949 10.4992 19.3385C12.8447 28.2195 13.5149 39.5441 11.6161 49.3184C11.4486 49.8965 12.4817 49.9227 12.6493 49.3184Z" fill="#59781C"/>
<path fill-rule="evenodd" clip-rule="evenodd" d="M7.98602 45.167C11.9232 45.167 15.1064 41.5147 15.1064 37.048C15.1064 32.5812 11.8953 28.929 7.98602 28.929C4.07677 28.9552 0.865601 32.5812 0.865601 37.048C0.865601 41.5147 4.07677 45.167 7.98602 45.167Z" fill="#FAE496"/>
<path fill-rule="evenodd" clip-rule="evenodd" d="M7.98605 32.6073C9.57767 32.6073 10.8901 30.9783 10.8901 28.9551C10.8901 26.9319 9.57767 25.3029 7.98605 25.3029C6.39442 25.3029 5.08203 26.9319 5.08203 28.9551C5.10995 30.952 6.39442 32.6073 7.98605 32.6073Z" fill="#CBAF4B"/>
<path fill-rule="evenodd" clip-rule="evenodd" d="M7.9861 0C4.99832 0 4.43985 1.49768 5.16586 4.28284C5.55678 5.7017 4.43985 4.80835 4.27231 6.20093C4.10477 7.59351 5.02624 7.27821 5.02624 8.22411C5.02624 9.06491 5.2217 14.3725 4.27231 17.9459C4.99832 19.0495 6.39448 19.8114 7.95818 19.8114C9.5498 19.8114 10.946 19.0495 11.672 17.9459C10.7226 14.3725 10.918 9.06491 10.918 8.22411C10.918 7.27821 11.8395 7.59351 11.672 6.20093C11.5044 4.80835 10.4154 5.72798 10.7784 4.28284C11.5603 1.49768 11.0018 0 7.9861 0Z" fill="#CBAF4B"/>
<path fill-rule="evenodd" clip-rule="evenodd" d="M4.94238 18.6816C5.13785 18.8656 5.36123 18.9969 5.58462 19.1546C6.42231 15.7126 6.2827 8.9073 6.2827 7.9614C6.2827 6.98922 5.75216 7.33079 5.83593 5.91194C5.94762 4.49308 6.58985 5.43899 6.36647 3.96758C6.11516 2.23342 6.11516 0.998491 6.58985 0.289062C5.52877 0.84084 5.41708 2.20715 5.83593 4.28288C6.14308 5.70174 5.27746 4.80838 5.13784 6.20096C4.99823 7.59355 5.72423 7.27824 5.72423 8.22415C5.69631 9.1175 5.86385 15.1608 4.94238 18.6816Z" fill="#EBD37C"/>
<path fill-rule="evenodd" clip-rule="evenodd" d="M11.6998 17.9459C10.918 14.9768 10.918 11.4822 10.9459 8.32921V8.25039C10.9459 7.30448 11.8674 7.61978 11.6998 6.2272C11.5323 4.7558 10.4154 5.88563 10.8342 4.20402C11.1414 3.04791 11.4206 1.34003 10.2199 0.525502C9.99652 0.341577 9.43805 0 8.18151 0C7.98604 1.18238 7.95812 1.99691 8.37697 4.28284C8.6562 5.7017 7.87435 4.80835 7.76266 6.20093C7.65097 7.59351 8.2932 7.27821 8.2932 8.22411C8.2932 9.17002 8.46074 16.0804 7.39966 19.4173C7.37173 19.5224 7.34381 19.6275 7.28796 19.7326C9.07505 19.9954 10.8342 19.2597 11.6998 17.9459Z" fill="#EBD37C"/>
<path fill-rule="evenodd" clip-rule="evenodd" d="M10.4154 19.1546C10.6388 19.0232 10.8622 18.8656 11.0577 18.6816C10.1362 15.1608 10.3037 9.1175 10.3037 8.22415C10.3037 7.27824 11.0297 7.59355 10.8901 6.20096C10.7505 4.80838 9.91281 5.72801 10.192 4.28288C10.6109 2.23342 10.4992 0.867115 9.43811 0.289062C9.88488 0.998491 9.9128 2.23342 9.6615 3.96758C9.43811 5.41271 10.0803 4.49308 10.192 5.91194C10.3037 7.33079 9.74527 6.98922 9.74527 7.9614C9.71734 8.9073 9.57773 15.7126 10.4154 19.1546Z" fill="#F5E29D"/>
<path fill-rule="evenodd" clip-rule="evenodd" d="M5.2496 4.59814C5.30545 4.91345 5.22168 5.0711 5.10999 5.14992H10.8901C10.7784 5.04482 10.6946 4.91345 10.7505 4.59814H5.2496Z" fill="#B09430"/>
<path fill-rule="evenodd" clip-rule="evenodd" d="M4.97034 7.80371C5.02618 7.90881 5.05411 8.04019 5.05411 8.22411C5.05411 8.25039 5.05411 8.30294 5.05411 8.35549H10.9459C10.9459 8.30294 10.9459 8.25039 10.9459 8.22411C10.9459 8.04019 10.9738 7.90881 11.0297 7.80371H4.97034Z" fill="#B09430"/>
<path fill-rule="evenodd" clip-rule="evenodd" d="M10.2478 5.17617C10.1641 5.07107 10.1082 4.93969 10.1361 4.62439H9.60559C9.63351 4.96597 9.82898 4.93969 9.99651 5.17617H10.2478Z" fill="#CBAF4B"/>
<path fill-rule="evenodd" clip-rule="evenodd" d="M10.3037 8.35549V8.22411C10.3037 8.04019 10.3316 7.90881 10.3595 7.80371H9.71729C9.71729 7.85626 9.71729 7.90881 9.71729 7.96136C9.71729 8.04019 9.71729 8.17156 9.71729 8.35549H10.3037Z" fill="#CBAF4B"/>
<path fill-rule="evenodd" clip-rule="evenodd" d="M5.7522 5.17617H6.03143C6.17105 4.93969 6.36651 4.96597 6.42235 4.62439H5.86389C5.89181 4.93969 5.83597 5.07107 5.7522 5.17617Z" fill="#CBAF4B"/>
<path fill-rule="evenodd" clip-rule="evenodd" d="M5.69632 8.35549H6.25478C6.25478 8.17156 6.25478 8.04019 6.25478 7.96136C6.25478 7.90881 6.25478 7.85626 6.25478 7.80371H5.61255C5.6684 7.90881 5.66839 8.04019 5.66839 8.22411L5.69632 8.35549Z" fill="#CBAF4B"/>
</g>
<defs>
<clipPath id="clip0">
<rect width="16" height="51" fill="white"/>
</clipPath>
</defs>
</svg>
