<svg width="34" height="34" viewBox="0 0 34 34" fill="none" xmlns="http://www.w3.org/2000/svg">
<path d="M30.449 20.4776C30.7648 27.9012 24.4261 33.9317 16.995 33.9317C9.56389 33.9317 3.542 27.9076 3.542 20.4776C3.542 20.4776 3.41186 14.0472 5.07281 11.153C5.07281 11.153 5.54752 14.1901 7.77812 15.3294C10.0087 16.4687 10.6253 17.3701 10.6253 17.3701C10.6253 17.3701 5.92729 8.25783 16.5576 0C16.5576 0 15.5132 4.22332 17.7438 5.88428C19.9744 7.54523 20.7809 10.3924 20.5441 12.4331C20.5441 12.4331 22.7747 10.8191 22.2051 7.02358C22.2051 7.02358 25.2901 8.92135 25.1472 18.5553C25.1472 18.5553 28.611 18.3185 27.4247 12.4811C27.4247 12.4811 30.2005 14.6168 30.449 20.4776Z" fill="#E14B4B"/>
<path d="M9.93402 26.6691C9.93402 26.6691 10.4941 34.2517 17.6457 33.9935C17.6457 33.9935 23.6772 33.9071 24.0655 27.402C24.0655 27.402 20.5985 30.0828 20.6316 25.8082C20.6369 25.0476 20.8492 24.3062 21.1873 23.6246C21.5746 22.8415 22.0365 21.4452 21.7399 19.5602C21.7399 19.5602 20.8886 23.2661 18.8959 21.4558C17.7043 20.3731 17.2382 19.4279 17.7331 15.1224C17.7331 15.1224 16.2866 16.3791 15.8983 19.286C15.8247 19.8365 15.4375 20.3186 14.8955 20.4392C14.3622 20.5576 13.705 20.3347 13.2101 18.9703C13.2101 18.9703 12.09 20.6003 13.8128 24.5612C13.8128 24.5612 14.2864 26.4536 12.7353 27.2292C11.1843 28.0047 9.93402 26.6691 9.93402 26.6691Z" fill="#FFD83B"/>
</svg>
