<svg width="30" height="30" viewBox="0 0 30 30" fill="none" xmlns="http://www.w3.org/2000/svg">
<path d="M0.866301 23.1917C0.866301 23.1917 -0.166852 22.5242 0.0545381 21.3377C0.23903 20.1511 2.08395 17.6666 6.80693 17.8891C7.508 19.2982 9.42671 19.669 11.4561 19.4465C15.0353 19.0015 17.7657 12.8832 18.4668 10.955C19.5369 8.1739 21.1235 4.72537 23.854 2.05554C26.2523 -0.317648 26.5844 0.0160809 26.5844 0.0160809C26.5844 0.0160809 30.8277 2.79716 29.7946 8.47055C29.3518 10.8437 28.1342 14.2923 26.5844 13.4765C25.9203 13.1428 24.9609 12.809 24.9609 12.809L22.0459 15.108L19.4631 18.3341L16.2529 24.3412L12.0834 25.639L0.866301 23.1917Z" fill="#FC643A"/>
<path d="M29.2406 10.6583C29.4989 9.9167 29.6834 9.138 29.7941 8.47054C29.8679 7.98849 29.9417 7.50643 29.9417 7.06146C27.285 7.766 24.5914 9.99086 22.1561 12.4011C19.2043 15.2934 15.3299 25.639 6.03157 22.4501C4.37114 21.8939 2.26794 21.2264 0.570616 20.2252C0.27543 20.6331 0.0909382 21.041 0.0540398 21.3747C-0.130452 22.5613 0.865803 23.2288 0.865803 23.2288L12.0829 25.6761L16.2524 24.3412L19.4257 18.3712L22.0085 15.1451L24.9235 12.8461C24.9604 12.809 28.6502 12.4753 29.2406 10.6583Z" fill="#F4502A"/>
<path d="M0.0170898 21.968C0.0170898 21.968 6.10531 24.8974 12.1935 25.0087C14.924 24.9345 16.1048 23.5254 16.8058 21.8939C17.5069 20.2623 19.6101 16.6654 21.6764 14.4777C23.7058 12.2899 27.9491 9.24925 29.8309 8.50763C29.9416 9.21217 29.6833 10.8808 29.3513 12.5495C29.093 13.7731 28.2812 19.8544 28.1336 22.6355C27.986 25.8245 27.8753 29.4955 27.8753 29.4955C27.8753 29.4955 27.1374 29.755 25.4031 29.755C25.4031 27.3819 25.44 14.8856 25.0711 14.4777C24.7021 14.0327 24.1486 14.0698 22.8203 15.2935C21.4919 16.5171 18.7614 19.2982 17.2855 25.8615C16.5106 29.1617 14.7026 29.755 13.8909 29.9404C13.116 30.1258 2.59997 29.1247 0.533666 26.8627C0.0170898 25.2312 0.0170898 21.968 0.0170898 21.968Z" fill="#E8390A"/>
<path d="M24.739 13.9956C24.2593 13.9956 23.7427 14.2181 22.8572 14.9968C21.8609 15.8867 18.3925 18.7049 16.8058 25.7503C16.2893 27.9381 14.6657 29.2359 13.3374 29.3842C12.0828 29.4955 3.11655 28.4201 0.422974 26.6402C0.459872 26.7144 0.459872 26.7886 0.49677 26.8627C2.59998 29.1247 13.116 30.0888 13.8909 29.9404C14.7026 29.755 16.5106 29.1617 17.2855 25.8615C18.7614 19.2982 21.4919 16.48 22.8203 15.2934C24.1486 14.0698 24.7021 14.0698 25.0711 14.4777C25.44 14.9226 25.4031 27.4189 25.4031 29.755C25.5507 29.755 25.6983 29.755 25.8459 29.755C25.8459 29.7179 25.8459 29.6438 25.8459 29.6067V29.1247C25.8459 19.3724 25.4769 16.0721 25.4031 14.9226C25.44 14.2181 24.9973 13.9956 24.739 13.9956Z" fill="#B51D04"/>
<path d="M27.949 28.6797C27.0635 28.8651 26.141 28.9393 25.4399 28.9393C25.4399 29.273 25.4399 29.5696 25.4399 29.755C27.1742 29.755 27.9121 29.4955 27.9121 29.4955C27.9121 29.4955 27.949 29.1988 27.949 28.6797Z" fill="#B51D04"/>
<path d="M0.0170898 22.6726C1.56682 23.34 6.80638 25.5649 11.9353 25.639C15.0716 25.5278 16.4368 23.5254 17.101 22.0422C17.839 20.3365 20.016 16.9621 22.0085 14.8485C24.001 12.7349 27.7646 10.1763 29.7202 9.24925C29.7571 9.21217 29.8309 9.21217 29.8678 9.17509C29.8678 8.91552 29.8678 8.69303 29.8309 8.50763C27.9122 9.24925 23.7058 12.2899 21.6764 14.4777C19.647 16.6654 17.5438 20.2623 16.8058 21.8939C16.1048 23.5254 14.924 24.9345 12.1935 25.0087C6.06842 24.9345 0.0170898 21.968 0.0170898 21.968C0.0170898 21.968 0.0170898 22.2647 0.0170898 22.6726Z" fill="#FF8C71"/>
<path d="M2.37854 19.8173C2.37854 19.8173 3.74378 18.6678 5.03522 18.8903C5.84698 19.5577 7.06463 19.9656 8.79885 20.3735C6.58495 21.3376 2.37854 19.8173 2.37854 19.8173Z" fill="#FF8C71"/>
</svg>
