<svg width="126" height="167" viewBox="0 0 126 167" fill="none" xmlns="http://www.w3.org/2000/svg">
<path d="M71.5271 147.472H40.8325V166.337H71.5271V147.472Z" fill="#2D3E50"/>
<path fill-rule="evenodd" clip-rule="evenodd" d="M54.8454 53.5915H41.9448L30.6011 88.658L12.5847 128.607L45.0587 141.48H63.52L63.9648 115.291L54.8454 53.5915Z" fill="#EAAF87"/>
<path fill-rule="evenodd" clip-rule="evenodd" d="M47.5054 56.6988C40.6103 76.2295 34.3824 85.9948 44.6139 103.75C47.9503 109.298 49.5072 108.189 51.0642 121.949C52.1763 131.936 57.5145 140.37 58.8491 149.913C59.7388 157.903 59.9612 160.123 60.1836 165.893H111.564C110.452 156.35 106.448 153.243 104.224 149.026C91.5455 126.388 94.437 121.949 93.1025 96.6479L90.8782 62.6911L58.1818 49.5967L47.5054 56.6988Z" fill="#E5A278"/>
<path fill-rule="evenodd" clip-rule="evenodd" d="M59.0715 159.013C59.7388 161.898 59.9612 163.23 60.1837 166.115H111.564C110.452 156.572 106.448 153.465 104.224 149.248C88.2092 152.799 74.6413 161.898 59.0715 159.013Z" fill="#1D2936"/>
<path fill-rule="evenodd" clip-rule="evenodd" d="M73.0841 154.796C71.5271 155.906 68.6356 157.459 67.5234 158.347C65.744 159.901 64.8543 160.788 63.7422 161.454C62.4077 162.12 60.8507 162.564 57.0695 163.452C54.6228 163.896 49.9519 165.005 47.7276 165.227C45.9482 165.671 44.3913 165.449 43.724 164.118C41.0549 163.674 41.0549 162.786 39.9428 160.345C38.1634 159.013 38.3858 158.791 37.2737 156.794C36.384 155.24 35.4943 153.464 35.7167 152.577C35.9391 151.467 37.2737 151.023 39.4979 150.135C38.6082 148.582 37.2737 146.806 38.3858 145.031C39.0531 143.921 40.3876 143.699 42.6119 143.477C44.3913 143.255 45.281 143.255 46.1707 143.255C47.7276 143.477 48.8398 144.143 52.3986 145.031C54.6228 145.919 55.5125 147.028 57.2919 146.806C59.2937 146.362 63.5198 143.477 65.2992 141.924L73.0841 154.796Z" fill="#E5A278"/>
<path fill-rule="evenodd" clip-rule="evenodd" d="M38.8307 149.47C39.0531 149.691 39.2755 149.913 39.2755 150.357C37.0513 151.245 35.7167 151.689 35.4943 152.799C35.2719 153.686 36.1616 155.462 37.0513 157.015C38.1634 159.013 38.1634 159.013 39.7204 160.567C40.8325 163.008 40.8325 164.118 43.5016 164.34C44.1689 165.449 45.7258 165.671 47.5052 165.449C49.7295 165.005 54.178 164.118 56.6246 163.674C60.4059 162.786 61.9628 162.342 63.2974 161.676C64.4095 161.01 65.2992 160.123 67.0786 158.569C68.4131 157.459 69.9701 156.572 71.5271 155.462L71.7495 151.245C66.1889 154.574 47.2828 142.367 47.0604 145.253C46.6155 150.135 59.7386 155.018 60.6283 158.791C61.0731 160.788 55.5125 161.676 51.7313 162.786C48.8398 163.674 43.724 165.005 44.6137 164.34L45.7258 163.452C45.0585 163.674 43.0567 163.896 41.7222 163.23C40.8325 162.786 40.3876 161.454 40.8325 160.788C40.8325 160.567 42.6119 161.01 44.8361 160.123C42.167 160.123 39.9428 159.679 38.8307 158.569C37.941 157.903 37.2737 156.35 36.6064 154.13C35.7167 151.911 37.0513 152.133 38.6082 151.245C41.0549 149.691 42.8343 148.582 45.5034 149.026C42.3895 147.694 42.167 148.36 38.8307 149.47Z" fill="#D9966C"/>
<path fill-rule="evenodd" clip-rule="evenodd" d="M61.5181 39.8312C62.1854 42.0506 62.6302 44.9359 63.2975 46.4894C63.7423 47.5991 64.4096 47.8211 65.7442 48.043C72.1945 49.1527 83.5381 49.8185 86.6521 52.0379C101.332 49.5966 107.56 55.367 111.786 70.0151C118.236 75.5635 121.573 79.5585 123.352 83.9973C126.911 92.8749 124.464 104.416 125.576 114.403C126.244 119.286 126.244 120.617 124.687 121.949C123.13 123.503 122.018 124.39 121.128 125.278C116.235 130.605 115.567 132.602 111.786 135.709C101.777 143.699 89.5436 147.472 71.972 155.24L62.6302 142.811C71.5272 139.704 76.1981 136.375 79.3121 132.824C84.2054 127.054 85.3175 118.62 95.7715 109.52C87.0969 100.421 84.8727 95.7601 86.4297 83.1095C69.5254 72.4564 68.6357 66.464 56.8472 50.0405L61.5181 39.8312Z" fill="#E5A278"/>
<path fill-rule="evenodd" clip-rule="evenodd" d="M61.5181 39.8312C62.1853 42.0506 62.6302 44.9359 63.2974 46.4894C63.7423 47.5991 64.4096 47.8211 65.7441 48.043C72.1944 49.1527 83.5381 49.8185 86.652 52.0379C101.332 49.5966 107.56 55.367 111.786 70.0151C118.236 75.5635 121.573 79.5585 123.352 83.9973C126.911 92.8749 124.464 104.416 125.576 114.403C126.244 119.286 126.244 120.617 124.687 121.949C123.13 123.503 122.018 124.39 121.128 125.278C116.235 130.605 115.567 132.602 111.786 135.709C101.777 143.699 89.5436 147.472 71.972 155.24L70.415 153.242C71.7496 152.577 73.7514 138.373 75.3084 139.704C76.8654 141.036 79.7569 148.804 81.5363 147.916C84.6502 146.362 86.8745 145.475 89.9884 144.143C98.663 140.148 112.898 129.939 119.571 122.393C122.018 121.727 123.575 121.505 123.575 118.398C123.575 116.179 122.907 114.403 122.685 110.63C122.462 103.972 123.13 97.5356 122.685 91.0993C122.018 83.1095 119.348 80.8901 110.451 72.0125C109.117 73.788 109.339 73.788 107.338 75.1197C108.895 71.5686 108.45 69.5712 108.005 66.686C106.893 61.1375 102.444 55.367 94.8818 53.8134C91.323 53.1476 84.8726 52.9257 89.3211 59.5839C85.9848 57.3645 84.8726 55.367 85.5399 53.1476C81.7587 52.7037 71.3047 50.9282 66.189 50.2624C62.1853 49.8185 62.4077 48.4869 61.2956 46.0456L57.5144 47.8211L61.5181 39.8312ZM63.9647 145.031C68.8581 142.367 73.3066 140.592 78.6448 137.041C80.869 136.153 88.209 135.043 85.9848 131.049C85.3175 130.827 84.4278 130.827 82.8708 130.605C91.5454 120.395 97.7733 107.523 108.672 105.082C106.003 104.416 103.556 103.972 96.6612 107.301C91.9902 100.865 87.9866 91.0993 89.766 83.9973C95.9939 84.6631 101.332 83.7753 105.558 77.561C100.887 80.8901 92.4351 81.5559 87.0969 79.7804C80.6466 77.783 77.7551 75.1197 73.0841 69.5712C76.1981 76.6732 82.2035 81.334 86.2072 83.1095C84.6502 95.7601 86.652 100.421 95.549 109.52C85.0951 118.842 83.9829 127.276 79.0896 132.824C76.1981 136.375 71.3047 139.926 62.4077 142.811L63.9647 145.031Z" fill="#D9966C"/>
<path fill-rule="evenodd" clip-rule="evenodd" d="M40.3878 78.2268C40.8327 98.8673 48.1727 103.75 61.5182 101.309C68.4133 99.9769 82.6485 89.9897 83.7606 83.5534C77.0879 80.0024 75.0861 74.4539 74.4188 70.9028C78.4225 76.0074 80.4243 78.2268 87.3194 79.5585L86.2073 88.4361C79.757 99.9769 72.8618 105.969 58.8491 107.301C44.6139 108.633 37.2739 99.3111 40.3878 78.2268Z" fill="#D9966C"/>
<path fill-rule="evenodd" clip-rule="evenodd" d="M46.3933 99.5332C47.7279 102.418 48.6176 104.86 49.9521 107.745C51.2867 110.852 50.397 110.63 54.4006 110.408C60.6285 109.964 65.7443 109.964 70.1928 111.518C65.5219 111.518 59.5164 111.962 56.4024 112.628C53.9558 113.072 53.5109 113.293 53.5109 116.179C53.7334 119.064 54.1782 120.174 55.0679 120.617C55.7352 121.061 55.9576 121.283 58.6267 121.505C63.2976 121.949 69.9704 119.286 76.4207 118.62C73.974 120.174 63.52 123.725 57.5146 123.503C54.8455 123.503 51.7315 123.281 51.2867 122.171C49.7297 119.286 49.9521 116.179 49.0624 113.293C47.7279 109.299 43.5018 103.75 41.5 98.2015L46.3933 99.5332Z" fill="#D9966C"/>
<path fill-rule="evenodd" clip-rule="evenodd" d="M77.3103 119.73C76.4206 132.158 67.0787 130.827 51.9539 132.824C65.5218 132.602 81.7588 133.49 77.3103 119.73Z" fill="#D9966C"/>
<path fill-rule="evenodd" clip-rule="evenodd" d="M48.3951 111.518C45.0587 113.515 42.1672 114.625 37.2738 113.959C38.1635 116.179 39.2757 118.176 40.1653 120.396C41.2775 122.615 40.3878 122.615 43.2793 122.393C46.1708 122.171 49.0623 122.393 50.8417 121.949L51.2866 123.281C48.8399 123.503 46.1708 123.725 44.6138 123.947C42.8344 124.39 42.3896 124.39 42.612 126.61C42.8344 128.607 43.0569 129.495 43.7241 129.939C44.169 130.161 45.5035 130.161 47.2829 130.383C50.6193 130.605 53.9557 130.605 57.292 131.049C55.2902 131.271 49.5072 132.158 45.2811 131.936C43.2793 131.936 41.2775 131.714 40.8326 131.049C39.7205 129.051 40.6102 126.61 39.9429 124.612C39.2756 122.615 37.4963 120.617 36.1617 118.62C33.715 115.513 33.0478 113.293 30.3787 109.299L37.4963 111.74C42.3896 111.962 43.5017 111.518 47.7278 111.074L48.3951 111.518Z" fill="#E5A278"/>
<path fill-rule="evenodd" clip-rule="evenodd" d="M35.272 50.0405C35.272 52.7037 36.1617 57.5864 33.4926 58.9181C28.1544 61.3594 24.5956 63.1349 19.9247 67.1298C6.35679 73.1222 2.35315 81.7779 5.91194 97.9795C1.24103 108.411 -1.42807 111.296 0.796176 121.061C1.46345 124.168 2.57557 127.054 3.02042 130.161C4.35497 136.597 6.35679 137.929 8.80346 142.811C10.8053 146.806 12.3623 146.806 14.8089 147.472C19.7023 148.804 25.0405 149.47 30.3787 149.248C36.3841 149.248 42.3896 148.138 48.1726 146.14C49.952 147.028 50.3969 147.916 51.7314 148.804C54.623 151.023 56.6248 151.689 58.849 153.464C59.9611 154.352 60.8508 155.018 61.5181 155.906C62.8527 157.681 63.2975 159.013 64.4096 159.679C65.0769 160.123 67.5236 160.123 67.5236 158.791L68.8581 161.01C70.4151 161.898 71.9721 161.01 72.8618 159.013C73.5291 160.123 74.8636 159.679 75.7533 159.235C76.4206 158.791 77.5327 158.347 77.0879 156.572C78.2 157.237 78.8672 156.794 79.3121 156.572C81.5363 155.684 79.7569 150.357 79.0897 148.582C78.4224 146.584 77.3103 145.031 76.4206 143.255C74.6412 140.592 73.9739 137.707 74.4188 136.153C74.8636 135.043 77.3103 135.487 79.0897 134.821C81.5363 134.821 84.2054 134.6 85.3176 132.824C86.2073 131.714 85.7624 131.049 85.0951 130.605C84.2054 130.161 82.426 130.383 81.5363 130.383C78.4224 129.717 77.5327 129.939 74.4188 130.161C71.9721 129.939 71.0824 129.939 69.9703 130.161C68.6357 130.605 67.3012 131.714 64.6321 132.38C63.7424 132.602 61.0733 132.158 58.4042 131.936C55.0678 131.492 51.9539 130.605 48.8399 130.383C45.726 129.939 42.8344 129.273 39.7205 129.495C34.8272 125.278 33.2702 124.834 27.0423 121.949C29.0441 119.73 30.8235 113.515 32.3805 106.191C35.0496 94.2065 37.0514 78.8926 37.9411 73.5661L43.5017 54.2573L35.272 50.0405Z" fill="#EAAF87"/>
<path fill-rule="evenodd" clip-rule="evenodd" d="M35.272 50.0405C35.272 52.7037 36.1617 57.5864 33.4926 58.9181C28.1544 61.3594 24.5956 63.1349 19.9247 67.1298C6.35679 73.1222 2.35315 81.7779 5.91194 97.9795C1.24103 108.411 -1.42807 111.296 0.796176 121.061C1.46345 124.168 2.57557 127.054 3.02042 130.161C4.35497 136.597 6.35679 137.929 8.80347 142.811C10.8053 146.806 12.3623 146.806 14.8089 147.472C19.7023 148.804 25.0405 149.47 30.3787 149.248C36.3841 149.248 42.3896 148.138 48.1726 146.14C49.952 147.028 50.3969 147.916 51.7314 148.804C54.623 151.023 56.6248 151.689 58.849 153.464C59.9612 154.352 60.8509 155.018 61.5181 155.906C62.8527 157.681 63.2975 159.013 64.4096 159.679C65.0769 160.123 67.5236 160.123 67.5236 158.791L68.8581 161.01C70.4151 161.898 71.9721 161.01 72.8618 159.013C73.5291 160.123 74.8636 159.679 75.7533 159.235C76.4206 158.791 77.5327 158.347 77.0879 156.572C78.2 157.237 78.8673 156.794 79.3121 156.572C81.5364 155.684 79.757 150.357 79.0897 148.582C78.4224 146.584 77.3103 145.031 76.4206 143.255C74.6412 140.592 73.9739 137.707 74.4188 136.153C74.8636 135.043 77.3103 135.487 79.0897 134.821C81.5363 134.821 84.2055 134.6 85.3176 132.824C85.9848 131.936 85.7624 131.492 85.54 131.049C83.983 133.49 82.8709 133.49 79.9794 133.934C77.5327 133.49 75.9757 134.156 73.5291 134.6C73.0842 137.263 73.7515 140.37 75.086 142.811C75.9757 144.365 77.0879 146.14 77.9776 147.694C78.6448 149.026 78.6448 149.026 77.5327 150.135C76.8654 151.023 75.7533 151.689 74.8636 150.135C73.9739 148.582 72.8618 147.25 71.9721 145.697C71.5272 145.031 70.4151 142.589 69.9703 142.589C69.303 142.589 69.9703 143.033 71.3048 145.697C72.1945 147.694 73.0842 149.47 73.9739 151.467C74.4188 152.355 74.6412 152.799 73.9739 153.464C73.3066 154.13 72.1945 154.796 71.3048 153.686L67.5236 148.138C65.5218 145.031 64.4096 144.143 66.8563 148.36C66.8563 148.36 69.0806 151.689 69.9703 153.686C70.86 155.24 71.0824 155.906 69.9703 156.572C69.0806 157.015 68.6357 156.794 67.0787 154.796C65.7442 153.242 64.4096 151.911 63.0751 150.135C61.2957 148.138 61.0733 148.582 62.6302 150.357C64.1872 152.355 64.8545 152.355 66.189 154.352C67.3012 156.128 64.4096 156.794 62.6302 155.018L60.406 152.799C58.849 151.689 57.0696 150.357 55.5127 149.248C53.7333 147.916 52.1763 146.806 51.7314 144.365C50.6193 140.148 49.2848 139.926 45.2811 140.592C42.1672 141.036 36.1617 141.924 32.3805 142.811C25.7077 144.143 19.035 143.477 17.2556 143.921C12.5847 145.253 11.9174 144.143 10.138 139.704C6.57922 133.046 5.24467 127.054 4.35497 119.508C2.35315 109.298 5.02224 99.9769 15.9211 94.4284C12.3623 95.3162 11.9174 95.3162 8.35862 95.3162C5.46709 82.4437 7.91376 71.3467 23.0386 68.0176C27.4871 62.913 32.1581 62.4691 37.2738 56.6987L42.3896 53.3696L35.272 50.0405Z" fill="#E5A278"/>
<path fill-rule="evenodd" clip-rule="evenodd" d="M25.0405 73.5661C19.0351 89.7677 19.7023 102.418 28.3769 105.747C33.7151 107.967 39.4981 105.969 44.8363 104.638L45.9484 106.635C41.0551 109.076 37.4963 110.186 32.3805 111.962C33.0478 121.727 35.0496 122.837 37.7187 127.276L31.7133 124.168C31.4908 120.173 28.5993 112.406 26.1526 110.852C15.6987 103.306 15.2538 89.3238 25.0405 73.5661Z" fill="#E5A278"/>
<path fill-rule="evenodd" clip-rule="evenodd" d="M35.4946 49.8186V56.4768C36.3843 62.6911 40.6104 67.3518 41.5001 74.01C48.8401 66.2421 51.0644 67.3518 57.0698 57.1426C59.0717 55.811 60.6286 54.7013 61.9632 52.7038C62.6304 51.5941 63.0753 49.8186 63.5201 47.8211L61.2959 38.4997L54.8456 32.9512L35.4946 49.8186Z" fill="#E5A278"/>
<path fill-rule="evenodd" clip-rule="evenodd" d="M46.1709 44.7141C45.5036 48.487 46.3933 62.2473 41.5 73.7882C48.84 66.0203 51.0643 67.13 57.0697 56.9207C59.0716 55.5891 60.6285 54.4794 61.9631 52.482C62.6303 51.3723 63.0752 49.5967 63.52 47.5993L61.2958 38.2778L54.8455 32.7293L46.1709 44.7141Z" fill="#D9966C"/>
<path fill-rule="evenodd" clip-rule="evenodd" d="M63.0748 30.9535C63.7421 30.0658 63.9645 30.2877 64.4094 30.2877C65.2991 30.5097 65.0766 31.6194 64.8542 32.951C64.8542 33.6168 65.2991 34.5046 65.0766 35.8362C65.0766 38.0556 63.7421 39.1653 62.63 41.1628C62.4075 41.6066 61.7403 41.8286 61.073 41.6067L62.1851 31.8413L63.0748 30.9535Z" fill="#E5A278"/>
<path fill-rule="evenodd" clip-rule="evenodd" d="M32.6027 31.1756C31.9354 30.2879 31.713 30.5098 31.2681 30.5098C30.3784 30.7318 30.6009 31.8415 30.8233 33.1731C30.8233 33.8389 30.3784 34.7267 30.6009 36.0583C30.6009 38.2777 31.9354 39.3874 33.0475 41.3849C33.2699 41.8288 33.9372 42.0507 34.6045 41.8288L33.27 32.2853L32.6027 31.1756Z" fill="#EAAF87"/>
<path fill-rule="evenodd" clip-rule="evenodd" d="M48.1725 59.1401C48.1725 59.1401 47.9501 59.1401 48.1725 59.1401C45.5034 59.1401 44.3913 59.1401 43.0568 58.4743C41.7222 58.0304 41.2774 56.6987 39.498 55.1452C38.1634 53.8135 35.4943 52.26 34.827 50.9283C33.9373 48.9309 34.3822 46.7115 33.9373 43.6043C33.4925 41.163 32.3804 38.9436 32.3804 36.5022C32.3804 33.8389 32.8252 31.3976 32.8252 28.5124C32.8252 22.9639 32.8252 19.4129 36.1616 16.7496C37.0513 16.0838 38.1634 15.4179 39.2755 14.7521H39.498C39.498 14.7521 39.498 14.7521 39.7204 14.7521H39.9428H40.1652H40.3877C40.3877 14.7521 40.3877 14.7521 40.6101 14.7521H40.8325C40.8325 14.7521 40.8325 14.7521 41.0549 14.7521C41.2774 14.7521 41.2774 14.7521 41.4998 14.5302C47.5053 12.5327 55.0677 13.4205 59.7386 17.1935C63.075 19.8567 63.075 23.4078 63.075 29.1782C63.075 32.0634 63.5198 34.7267 63.5198 37.168C63.5198 39.6094 62.4077 41.8288 61.9629 44.2701C61.518 47.3773 61.9629 49.5967 61.0732 51.5941C60.4059 53.1477 57.9592 54.4794 56.4022 55.811C54.6228 57.3646 54.178 58.6962 52.8434 59.1401C51.5089 59.1401 50.3968 59.1401 48.1725 59.1401Z" fill="#EAAF87"/>
<path fill-rule="evenodd" clip-rule="evenodd" d="M48.1724 59.1401C48.1724 59.1401 47.95 59.1401 48.1724 59.1401H47.95V12.7547C52.176 12.7547 56.4021 14.0863 59.516 16.5277C62.8524 19.191 62.8524 22.742 62.8524 28.5124C62.8524 31.3976 63.2973 34.0609 63.2973 36.5023C63.2973 38.9436 62.1851 41.163 61.7403 43.6043C61.2954 46.7115 61.7403 48.9309 60.8506 50.9284C60.1833 52.4819 57.7366 53.8136 56.1797 55.1452C54.4003 56.6988 53.9554 58.0304 52.6209 58.4743C51.5087 59.1401 50.3966 59.1401 48.1724 59.1401Z" fill="#E5A278"/>
<path fill-rule="evenodd" clip-rule="evenodd" d="M44.3912 28.9563C44.3912 28.7344 44.1688 28.2905 43.7239 28.0685V28.2905C43.2791 27.8466 42.8342 27.6247 42.3894 27.6247C42.8342 27.8466 43.0566 28.0685 43.2791 28.2905C42.8342 27.8466 42.3894 27.6247 41.9445 27.1808C40.3875 26.293 39.053 26.293 37.2736 26.293C36.3839 26.293 35.9391 26.515 35.7166 26.515C35.9391 26.515 36.3839 26.515 36.3839 26.515C35.4942 26.7369 34.6045 27.4027 34.3821 28.5124C35.0494 27.8466 35.9391 27.4027 37.2736 27.6247C38.1633 27.8466 38.6082 28.2905 40.1651 28.5124L39.7203 28.0685C40.3875 28.5124 41.0548 28.7344 41.9445 29.1782C43.0566 29.8441 43.0566 29.4002 43.7239 29.8441C44.1688 30.066 44.3912 30.066 44.6136 30.066C44.6136 30.066 44.6136 29.6221 44.3912 28.9563Z" fill="#0D0501"/>
<path fill-rule="evenodd" clip-rule="evenodd" d="M50.6191 28.9562C50.6191 28.7343 50.8416 28.2904 51.2864 28.0685V28.2904C51.7313 27.8465 52.1761 27.6246 52.621 27.6246C52.1761 27.8465 51.9537 28.0685 51.7313 28.2904C52.1761 27.8465 52.621 27.6246 53.0658 27.4027C54.6228 26.5149 55.9573 26.5149 57.7367 26.5149C58.6264 26.5149 59.0713 26.7368 59.2937 26.7368C59.0713 26.7368 58.6264 26.7368 58.6264 26.7368C59.5161 26.9588 60.4058 27.6246 60.6283 28.7343C59.961 28.0685 59.0713 27.6246 57.7367 27.8465C56.847 28.0685 56.4022 28.5124 54.8452 28.7343L55.2901 28.2904C54.6228 28.7343 53.9555 28.9562 53.0658 29.4001C51.9537 30.0659 51.9537 29.6221 51.2864 30.0659C50.8416 30.2879 50.6192 30.2879 50.3967 30.2879C50.6192 30.0659 50.3967 29.6221 50.6191 28.9562Z" fill="#0D0501"/>
<path fill-rule="evenodd" clip-rule="evenodd" d="M53.0658 19.1909C49.7295 18.9689 47.5052 17.8592 43.9464 19.4128C41.2773 18.9689 37.941 18.5251 37.0513 19.6348C36.384 20.3006 35.7167 21.6322 36.6064 24.0736L35.2719 22.7419C34.6046 25.6271 34.3822 26.5149 34.6046 29.6221L33.0476 28.5124C33.27 33.617 33.7149 34.9486 33.9373 39.8313C31.7131 36.0583 32.8252 31.3976 30.3785 29.6221C29.9337 23.4077 29.7112 23.1858 31.0458 16.9715L29.4888 17.8592C29.9337 16.9715 30.1561 16.3057 30.8234 15.196C29.9337 15.4179 29.4888 15.6398 28.5991 16.5276C30.1561 13.4205 33.0476 12.3108 35.2719 9.20359C34.1597 8.98165 33.27 9.64747 32.6028 10.0914C34.1597 6.76226 35.9391 6.31838 38.6082 5.20868C37.941 3.87704 37.941 4.09898 37.7185 2.76734C39.7204 4.7648 43.2792 4.32092 45.281 3.87704C44.3913 2.98928 43.724 2.5454 43.9464 0.991821C44.3913 2.76734 45.281 2.76734 46.6155 3.21122L45.7258 1.87958C48.1725 3.43316 49.9519 4.09898 52.621 4.98674C54.4004 5.65256 60.4059 9.20359 60.8507 6.31838C61.2956 7.65002 61.0731 8.31584 60.1834 8.75972C61.2956 8.75972 61.9628 8.75972 63.075 8.53778C62.6301 8.75972 61.9628 8.98165 61.518 9.20359C65.5216 11.423 64.8544 12.9766 65.5216 17.6373C65.0768 15.6398 64.8544 15.196 63.7422 13.4205C64.4095 15.4179 65.2992 17.8592 65.5216 19.4128C65.9665 21.6322 65.0768 23.4077 64.8544 25.1833C64.8544 26.071 65.2992 26.7368 65.0768 27.6246C64.6319 29.844 64.4095 31.3976 64.4095 33.617C64.4095 32.2853 64.4095 31.1756 64.1871 29.6221C63.7422 32.0634 63.7422 35.6144 61.9628 40.941C62.1853 38.4997 61.9628 36.2803 61.9628 33.8389C61.9628 31.1756 61.9628 28.5124 61.518 25.4052C60.8507 19.4128 58.8489 18.3031 57.0695 18.3031C55.7349 18.5251 53.9555 19.1909 53.0658 19.1909Z" fill="#301508"/>
<path fill-rule="evenodd" clip-rule="evenodd" d="M81.9812 93.3188C83.7606 98.8673 86.4297 105.525 78.4224 110.63C84.2054 116.179 85.0951 117.954 84.6503 126.166C85.9848 121.283 88.6539 113.737 84.4278 110.186C88.2091 106.191 86.2072 98.6454 83.983 89.7678L81.9812 93.3188Z" fill="#D9966C"/>
<path fill-rule="evenodd" clip-rule="evenodd" d="M108.45 75.5636C107.56 83.7754 108.227 93.0968 111.564 101.531C114.233 105.304 120.906 106.857 116.012 116.179C108.45 130.383 94.2146 139.704 80.4243 146.806C91.768 140.37 106.003 130.827 112.898 114.625C114.01 112.184 114.455 109.742 113.121 107.967C111.119 105.747 108.227 104.86 104.891 105.525L107.783 103.306C107.338 91.5433 103.556 83.9973 108.45 75.5636Z" fill="#D9966C"/>
<path fill-rule="evenodd" clip-rule="evenodd" d="M15.921 95.76C13.0294 99.533 10.3603 103.306 8.35852 107.523C10.8052 110.63 11.25 111.962 11.9173 116.4L9.24822 117.51C20.5919 120.173 30.8234 124.168 40.6101 130.605C32.158 121.061 23.7058 119.508 14.1416 116.622C13.9191 110.852 12.807 108.854 10.5828 107.079C12.3622 103.306 14.1416 99.7549 15.921 95.76Z" fill="#E5A278"/>
</svg>
