<svg width="68" height="37" viewBox="0 0 68 37" fill="none" xmlns="http://www.w3.org/2000/svg">
<path d="M29.8697 16.9838L29.6262 17.6165L28.975 17.7901L28.5902 16.347L29.6262 16.0708L29.8697 16.9838Z" fill="#1D1E21"/>
<path d="M28.9158 16.2602L28.5902 16.347L28.975 17.7901L29.3006 17.7033L28.9158 16.2602Z" fill="#858380"/>
<path d="M25.6248 19.8506L28.1409 19.1797C28.7625 19.014 29.1323 18.3791 28.9673 17.7606L28.5825 16.3176L28.1385 16.436L28.5312 17.9085C28.6333 18.2914 28.4158 18.6648 28.031 18.7674L25.5149 19.4383C25.1301 19.541 24.7555 19.3254 24.6535 18.9425L24.2686 17.4994L23.8246 17.6178L24.2094 19.0609C24.3665 19.6499 25.0032 20.0164 25.6248 19.8506Z" fill="#1D1E21"/>
<path d="M26.9539 18.7708L26.8651 18.7945C26.3323 18.9365 25.8079 18.6347 25.6665 18.1046L25.4231 17.1917L25.7783 17.0969L26.0453 18.0983C26.1474 18.4811 26.522 18.6967 26.9068 18.5941C26.966 18.5783 27.0034 18.5998 27.0191 18.6588C27.0052 18.7255 26.9835 18.7629 26.9539 18.7708Z" fill="#252527"/>
<path d="M29.4489 16.1182L34.0962 14.8789C35.8179 18.3629 38.746 21.0205 42.2359 22.4558L40.4115 26.7908C35.6064 24.8229 31.6224 21.0589 29.4489 16.1182Z" fill="#252527"/>
<path d="M29.2415 16.1733C31.415 21.1141 35.399 24.8781 40.1823 26.8833L42.0067 22.5483C38.5464 21.1052 35.5887 18.4554 33.8671 14.9714L29.2493 16.2028L29.2415 16.1733ZM29.8153 16.3042L33.4841 15.1997C35.271 18.5717 38.0806 21.2609 41.4304 22.7651L39.9582 26.2806C35.4945 24.2848 31.8554 20.7443 29.8153 16.3042Z" fill="#858380"/>
<path d="M40.2671 22.4444L39.4727 21.9623C36.7367 20.2629 34.6073 17.8655 33.2438 15.0115L33.0904 14.6739L30.4263 15.3843L30.6564 15.8907C32.2144 19.3553 34.7969 22.2628 38.0651 24.2934L39.0172 24.8912L40.2671 22.4444Z" fill="#AEADAB"/>
<path d="M31.521 15.5655C33.0475 18.9122 35.5159 21.6293 38.5515 23.5012L38.9943 22.7838C36.1756 21.0118 33.8214 18.4851 32.3794 15.3366L32.8234 15.2182C34.2557 18.2115 36.4975 20.6736 39.2335 22.373L39.6159 22.618L38.7696 24.2001L38.3044 23.8825C35.1939 21.9676 32.6349 19.1484 31.0691 15.6544L31.5131 15.536L31.521 15.5655Z" fill="#363536"/>
<path d="M34.5765 15.7287L29.8699 16.9838C29.7322 16.7051 29.5866 16.3969 29.4489 16.1182L34.0962 14.8789C34.2418 15.1871 34.4091 15.4579 34.5765 15.7287Z" fill="#858380"/>
<path d="M18.542 14.4526L20.057 12.8814L34.5615 9.01367L34.3966 8.3952L38.8663 7.20331L39.4239 9.29432L37.2927 9.86264L38.3214 13.7207L29.5275 16.4126L24.3866 17.9412L19.7689 19.1726L19.6432 18.7014L18.3378 15.2326C18.275 14.997 18.3662 14.6256 18.542 14.4526Z" fill="#424040"/>
<path d="M29.4016 15.9415L38.2033 13.2789L38.3211 13.7207L29.5272 16.4127L24.3863 17.9413L19.7686 19.1726L19.6508 18.7309L24.2685 17.4995L29.4016 15.9415Z" fill="#858380"/>
<path d="M62.1507 5.34743C62.2691 5.31586 62.364 5.19593 62.3247 5.04868L62.2462 4.75417L48.0377 8.54297L48.1791 9.07308L62.1507 5.34743Z" fill="#1D1E21"/>
<path d="M47.6607 7.1294L54.0249 5.43233L52.7146 4.20449L47.2681 5.65686L47.6607 7.1294Z" fill="#252527"/>
<path d="M54.7649 5.23511L52.5745 5.81921L52.6451 6.08427L54.8356 5.50016L54.7649 5.23511Z" fill="#252527"/>
<path d="M48.8152 6.82156L47.6608 7.12939L47.7314 7.39445L48.8859 7.08661L48.8152 6.82156Z" fill="#252527"/>
<path d="M47.6902 7.12142L47.2897 5.61942C47.2269 5.38382 46.9647 5.23292 46.7279 5.29606L40.4821 6.96156C40.2453 7.0247 40.0931 7.28611 40.1559 7.52172L40.5564 9.02371L47.6902 7.12142Z" fill="#A85A26"/>
<path d="M5.84107 28.5331L19.7686 19.1727L19.6508 18.7309L18.5085 15.7549L14.0864 18.1958C13.7034 18.4241 12.6227 18.1761 12.1135 18.4065L2.84654 22.2971C2.50704 22.4507 2.32702 22.8457 2.51006 23.1755L4.95365 28.2966C5.13669 28.6263 5.51727 28.7457 5.84107 28.5331Z" fill="#A85A26"/>
<path d="M2.70958 23.0907C2.64857 22.9808 2.64675 22.8551 2.68239 22.7509C2.71804 22.6468 2.82073 22.5563 2.93914 22.5247L12.2435 18.6557C12.2731 18.6478 12.3027 18.6399 12.3619 18.6241C12.5987 18.561 12.8887 18.5783 13.2004 18.5582C13.52 18.5677 13.8021 18.5555 14.0389 18.4924C14.1277 18.4687 14.1869 18.4529 14.2382 18.4077L18.4392 16.0888L18.6868 16.7798L14.405 19.1518C13.9924 19.388 12.882 19.1479 12.3432 19.3862L2.83946 23.3399L2.70958 23.0907Z" fill="#2B2020"/>
<path d="M2.81711 22.3049L5.129 27.0511C5.28244 27.3887 5.69263 27.5001 6.01643 27.2876L19.3483 17.8336L19.6806 18.7229L19.7984 19.1647L5.84124 28.533C5.51744 28.7455 5.14471 28.6557 4.95381 28.2965L2.48063 23.1833C2.32719 22.8456 2.47761 22.4585 2.81711 22.3049Z" fill="#D1D2CF"/>
<path d="M48.3422 9.56594C48.405 9.80155 48.2528 10.063 48.016 10.1261L40.6453 12.0915C40.1125 12.2336 39.8159 12.7859 39.9572 13.316L38.3292 13.7501L37.3004 9.89209L47.6903 7.12153L48.3422 9.56594Z" fill="#A85A26"/>
<path d="M39.2437 12.7808C39.3609 12.1502 39.8133 11.5879 40.4646 11.4142L48.2792 9.33039L48.342 9.566C48.4049 9.8016 48.2526 10.063 48.0158 10.1262L40.6452 12.0916C40.1124 12.2337 39.8158 12.7859 39.9571 13.3161L38.3291 13.7502L38.1484 13.0728L39.2437 12.7808Z" fill="#D1D2CF"/>
<path d="M47.6039 6.79758L40.4404 8.70776L40.5347 9.06117L47.6981 7.15099L47.6039 6.79758Z" fill="#797875"/>
<path d="M47.0529 5.68259L47.1942 6.2127L40.4748 8.00449L40.3335 7.47438C40.302 7.35657 40.3594 7.21509 40.5074 7.17562L46.7532 5.51013C46.9012 5.47066 47.0136 5.53533 47.0529 5.68259Z" fill="#2B2020"/>
<path d="M47.0826 5.67477L40.3632 7.46655L40.4495 7.79051L47.169 5.99872L47.0826 5.67477Z" fill="#78431E"/>
<path d="M47.2867 6.44051L40.5673 8.2323L40.6694 8.61516L47.3888 6.82337L47.2867 6.44051Z" fill="#D1D2CF"/>
<path d="M47.5162 7.42023L37.5703 10.0724L37.7588 10.7792L47.7047 8.12704L47.5162 7.42023Z" fill="#2B2020"/>
<path d="M63.1638 4.50949C63.2822 4.47792 63.3771 4.358 63.3378 4.21074L63.1572 3.53337C63.1257 3.41557 63.0055 3.32145 62.8575 3.36091L47.7314 7.39441L48.0299 8.51354L63.156 4.48004L63.1638 4.50949Z" fill="#1D1E21"/>
<path d="M63.0579 3.40144L47.843 7.45862L47.9765 7.95928L63.1914 3.90211L63.0579 3.40144Z" fill="#1D1E21"/>
<path d="M63.0981 3.54927L47.8832 7.60645L47.9224 7.7537L63.1373 3.69653L63.0981 3.54927Z" fill="#1D1E21"/>
<path d="M63.2316 4.05L48.0167 8.10718L48.1031 8.43114L63.318 4.37396L63.2316 4.05Z" fill="#858380"/>
<path d="M59.838 4.16599L61.9101 3.61346L61.1326 0.697833L59.9486 1.01357L59.838 4.16599ZM61.3483 3.2901L60.3418 3.55847L60.3666 2.70015L61.1362 2.49493L61.3483 3.2901Z" fill="#252527"/>
<path d="M61.1327 0.697945L61.3761 1.61092L59.9257 1.99769L59.9487 1.01368L61.1327 0.697945Z" fill="#858380"/>
<path d="M61.4765 4.95945L56.3259 6.33289L56.3966 6.59794L61.5472 5.2245L61.4765 4.95945Z" fill="#363536"/>
<path d="M54.4019 6.84592L49.2513 8.21936L49.322 8.48442L54.4726 7.11098L54.4019 6.84592Z" fill="#363536"/>
<path d="M53.558 4.989L54.025 5.43229L47.6608 7.12936L47.5194 6.59924L53.558 4.989Z" fill="#858380"/>
<path d="M47.9633 6.48098L47.8376 6.00977L52.6034 4.73894L53.0251 5.13122L47.9633 6.48098Z" fill="#363536"/>
<path d="M40.1262 7.52972L39.031 7.82178L39.4394 9.35322L40.5346 9.06117L40.1262 7.52972Z" fill="#1D1E21"/>
<path d="M40.1655 7.67702L39.1887 7.9375L39.3536 8.55597L40.3305 8.29549L40.1655 7.67702Z" fill="#1D1E21"/>
<path d="M40.2049 7.82436L39.228 8.08484L39.283 8.29099L40.2598 8.03052L40.2049 7.82436Z" fill="#1D1E21"/>
<path d="M40.3776 8.47231L39.4008 8.73279L39.5107 9.1451L40.4875 8.88462L40.3776 8.47231Z" fill="#858380"/>
<path d="M34.7958 7.75245L34.8664 8.01751C34.9057 8.16476 35.0555 8.25099 35.2035 8.21153L34.9371 8.28257L34.4043 8.42465L34.2629 7.89453L34.7958 7.75245Z" fill="#1D1E21"/>
<path d="M35.3993 7.87541L35.3287 7.61036L35.8615 7.46828L36.0028 7.99839L35.47 8.14047L35.2036 8.21151C35.3516 8.17204 35.4386 8.02267 35.3993 7.87541Z" fill="#1D1E21"/>
<path d="M18.5496 14.4821L18.7472 14.2717L31.1204 10.9722L31.2225 11.3551L18.3757 14.7808C18.4034 14.6472 18.4765 14.5646 18.5496 14.4821Z" fill="#1D1E21"/>
<path d="M19.6913 13.2943L34.6398 9.30819L34.7419 9.69105L19.1718 13.8429L19.6913 13.2943Z" fill="#1D1E21"/>
<path d="M18.3755 14.7807L31.2224 11.355L31.3244 11.7379L18.3296 15.2031C18.2904 15.0558 18.3182 14.9222 18.3755 14.7807Z" fill="#858380"/>
<path d="M29.4826 11.2512L34.0707 10.0277C34.4555 9.92511 34.8301 10.1407 34.9322 10.5235C35.0343 10.9064 34.8168 11.2798 34.432 11.3825L29.8438 12.6059C29.459 12.7085 29.0845 12.493 28.9824 12.1101C28.8803 11.7272 29.1274 11.3459 29.4826 11.2512Z" fill="#686764"/>
<path d="M24.3122 14.3335L28.5451 13.2048C28.7819 13.1416 29.0441 13.2925 29.1069 13.5281C29.1698 13.7637 29.0175 14.0251 28.7807 14.0883L24.5478 15.217C24.311 15.2802 24.0488 15.1293 23.986 14.8937C23.9231 14.6581 24.0754 14.3967 24.3122 14.3335Z" fill="#858380"/>
<path d="M38.0156 7.46161L36.7428 7.80103L37.0334 8.8907L38.3062 8.55129L38.0156 7.46161Z" fill="#363536"/>
<path d="M36.5228 11.6135L31.6387 12.9159L31.7486 13.3282L36.6328 12.0258L36.5228 11.6135Z" fill="#858380"/>
<path d="M20.9522 25.5129C21.0072 25.7191 21.3739 25.9052 21.7605 25.9283L23.1433 26.0012C23.5299 26.0243 23.7709 25.7392 23.7281 25.3406C23.5909 24.5885 23.4405 23.4299 23.4925 22.9113C23.5505 22.2965 24.6831 18.9346 24.6831 18.9346L24.4161 17.9333L20.124 19.0778L20.3046 19.7552C20.3046 19.7552 21.061 20.6891 21.163 21.072C21.3594 21.8082 20.3711 23.3336 20.8501 25.1301C20.8501 25.1301 20.8972 25.3068 20.9522 25.5129Z" fill="#A85A26"/>
<path d="M20.8501 25.1301C20.8501 25.1301 20.8972 25.3068 20.9522 25.5129C21.0072 25.7191 21.3739 25.9052 21.7605 25.9283L23.1433 26.0012C23.5299 26.0243 23.7709 25.7392 23.7281 25.3406C23.5909 24.5885 23.4405 23.4299 23.4925 22.9113C23.5505 22.2965 24.6831 18.9346 24.6831 18.9346L24.4161 17.9333L20.124 19.0778L20.3046 19.7552C20.3046 19.7552 21.061 20.6891 21.163 21.072C21.3594 21.8082 20.3789 23.363 20.8501 25.1301ZM21.2941 25.0117C21.035 24.0398 21.2669 23.1262 21.4494 22.3836C21.5823 21.8119 21.717 21.3659 21.6071 20.9536C21.4971 20.5413 20.9595 19.8329 20.7251 19.5484L20.6858 19.4012L24.0603 18.5013L24.1703 18.9136C23.9069 19.7094 23.0376 22.2755 23.0013 22.853C22.9554 23.2753 23.0273 24.1394 23.2387 25.4079C23.2623 25.4963 23.2031 25.5121 23.2031 25.5121C23.1735 25.52 23.1735 25.52 23.1439 25.5279L21.7611 25.455C21.5678 25.4434 21.4258 25.3867 21.3805 25.3356L21.2941 25.0117Z" fill="#D1D2CF"/>
<path d="M18.1553 15.9752L18.5383 15.7469L19.6511 18.7309L19.7689 19.1726L19.3128 19.4835L18.1553 15.9752Z" fill="#858380"/>
<path d="M20.7251 19.5484L20.6858 19.4011L24.0603 18.5013L24.1702 18.9136L20.9141 19.7819C20.861 19.7014 20.8 19.5915 20.7251 19.5484Z" fill="#2B2020"/>
<path d="M34.4615 11.3746L29.8437 12.6059C29.4589 12.7085 29.0844 12.493 28.9823 12.1101L34.9617 10.5157C35.0638 10.8985 34.8463 11.272 34.4615 11.3746Z" fill="#1D1E21"/>
</svg>
