<svg width="36" height="36" viewBox="0 0 36 36" fill="none" xmlns="http://www.w3.org/2000/svg">
<g clip-path="url(#clip0)">
<path d="M16.5 33C16.3215 33 16.1415 32.958 15.978 32.8725C15.3255 32.5305 0 24.36 0 10.71C0 5.631 4.1385 1.5 9.225 1.5C12.1545 1.5 14.8005 2.7705 16.5 4.908C18.1995 2.7705 20.8455 1.5 23.775 1.5C28.8615 1.5 33 5.631 33 10.71C33 24.36 17.6745 32.5305 17.022 32.871C16.8585 32.958 16.6785 33 16.5 33Z" fill="#F44336"/>
<path d="M9.225 1.5C4.1385 1.5 0 5.631 0 10.71C0 24.36 15.3255 32.5305 15.978 32.871C16.1415 32.958 16.3215 33 16.5 33V21.354L14.823 18H12C11.172 18 10.5 17.328 10.5 16.5C10.5 15.672 11.172 15 12 15H15.75C16.0185 15 16.2765 15.072 16.5 15.201V4.908C14.8005 2.7705 12.1545 1.5 9.225 1.5Z" fill="#D43A2F"/>
<path d="M18.75 24C18.1815 24 17.6625 23.679 17.4075 23.1705L14.823 18H12C11.172 18 10.5 17.328 10.5 16.5C10.5 15.672 11.172 15 12 15H15.75C16.3185 15 16.8375 15.321 17.0925 15.8295L18.75 19.146L23.4075 9.82948C23.6475 9.35098 24.123 9.03598 24.657 9.00298C25.191 8.96848 25.7025 9.22348 25.998 9.66748L31.5525 18H34.5C35.328 18 36 18.672 36 19.5C36 20.328 35.328 21 34.5 21H30.75C30.249 21 29.781 20.7495 29.502 20.3325L24.936 13.4835L20.0925 23.172C19.8375 23.679 19.3185 24 18.75 24Z" fill="#ECEFF1"/>
<path d="M24.7545 9L24.657 9.003C24.123 9.036 23.6475 9.351 23.4075 9.8295L18.75 19.146L17.0925 15.8295C16.8375 15.321 16.3185 15 15.75 15H12C11.172 15 10.5 15.672 10.5 16.5C10.5 17.328 11.172 18 12 18H14.823L17.409 23.1705C17.6625 23.679 18.1815 24 18.75 24C19.3185 24 19.8375 23.679 20.0925 23.1705L24.936 13.482V9.0105L24.7545 9Z" fill="#CDD0D2"/>
</g>
<defs>
<clipPath id="clip0">
<rect width="36" height="36" fill="white"/>
</clipPath>
</defs>
</svg>
