<svg width="27" height="33" viewBox="0 0 27 33" fill="none" xmlns="http://www.w3.org/2000/svg">
<path opacity="0.8" d="M13 32.0373C20.1797 32.0373 26 26.8275 26 20.401C26 13.9744 20.1797 8.76459 13 8.76459C5.8203 8.76459 0 13.9744 0 20.401C0 26.8275 5.8203 32.0373 13 32.0373Z" fill="#F4B4B2"/>
<path d="M12.9231 8.76454C12.9231 8.76454 11.6538 22.3403 14.6923 29.7622L13.8846 30.0979C13.8846 30.0979 10.5769 22.0792 12.0769 8.57806L12.9231 8.76454Z" fill="#F9D5D5"/>
<path d="M15.5386 4.62469H10.4232V8.76456H15.5386V4.62469Z" fill="#EFE0E3"/>
<path d="M14.6925 1.0816H11.3079V4.62473H14.6925V1.0816Z" fill="#EFE0E3"/>
<path d="M14.1156 1.0816H13.3079V4.62473H14.1156V1.0816Z" fill="#E0CED3"/>
<path d="M14.2309 4.62469H13.1155V8.76456H14.2309V4.62469Z" fill="#E0CED3"/>
<path d="M14.6924 1.0816H14.5001V4.62473H14.6924V1.0816Z" fill="#D1C1C6"/>
<path d="M15.5386 4.62469H14.577V8.76456H15.5386V4.62469Z" fill="#D1C1C6"/>
<path d="M12.4617 1.0816H11.6541V4.62473H12.4617V1.0816Z" fill="#FFF3F6"/>
<path d="M12.8078 1.0816H12.6539V4.62473H12.8078V1.0816Z" fill="#FFF3F6"/>
<path d="M12.0386 4.62469H10.8079V8.76456H12.0386V4.62469Z" fill="#FFF3F6"/>
<path d="M12.5386 4.62469H12.2694V8.76456H12.5386V4.62469Z" fill="#FFF3F6"/>
<path d="M11.3079 4.62474H14.6925V4.51286H11.4617L11.3079 3.46857V4.62474Z" fill="#BAAEB2"/>
<path d="M14.3078 2.72265C14.3078 3.02102 14.0385 3.28209 13.7309 3.28209C13.4232 3.28209 13.1539 3.02102 13.1539 2.72265C13.1539 2.42428 13.4232 2.16321 13.7309 2.16321C14.0385 2.16321 14.3078 2.42428 14.3078 2.72265Z" fill="#87727A"/>
<path d="M13.7693 2.94639C13.8968 2.94639 14.0001 2.84621 14.0001 2.72262C14.0001 2.59903 13.8968 2.49884 13.7693 2.49884C13.6419 2.49884 13.5386 2.59903 13.5386 2.72262C13.5386 2.84621 13.6419 2.94639 13.7693 2.94639Z" fill="#5B4C52"/>
<path opacity="0.88" d="M16.2692 30.9184C16.2692 31.0676 14.8076 31.1795 12.9999 31.1795C11.1923 31.1795 9.73071 31.0676 9.73071 30.9184C9.73071 30.7692 11.1923 30.6573 12.9999 30.6573C14.8076 30.6573 16.2692 30.7692 16.2692 30.9184Z" fill="#D89C9C"/>
<path opacity="0.5" d="M18.0385 0H7.96155V8.76457H18.0385V0Z" fill="#F4B4B2"/>
<path opacity="0.3" d="M12.0001 0H9.11548V8.76457H12.0001V0Z" fill="white"/>
<path opacity="0.5" d="M13.0001 30.1352C19.6275 30.1352 25.0001 25.4765 25.0001 19.7296C25.0001 13.9828 19.6275 9.32404 13.0001 9.32404C6.3727 9.32404 1.00012 13.9828 1.00012 19.7296C1.00012 25.4765 6.3727 30.1352 13.0001 30.1352Z" fill="url(#paint0_linear)"/>
<path opacity="0.5" d="M17.3463 9.43591C19.1156 11.2261 20.3463 13.2774 21.0386 15.6644C21.231 16.9324 21.3848 18.2005 21.5771 19.5058C21.654 21.4825 21.231 23.3473 20.3079 25.063C19.6925 26.8532 18.6925 28.3823 17.231 29.6877C16.3463 30.6201 15.3463 31.366 14.231 31.9627C20.8463 31.4033 26.0386 26.4429 26.0386 20.4009C26.0002 15.3287 22.3848 11.0396 17.3463 9.43591Z" fill="#DBA2A2"/>
<path opacity="0.4" d="M10.3847 18.3497C10.4616 19.4686 9.9616 20.5502 9.23083 21.4826C9.00006 21.7436 8.76929 21.9674 8.50006 22.1539C7.73083 22.7133 6.84622 23.0117 5.9616 22.8625C3.80775 22.5269 2.4616 19.9161 2.9616 17.0443C3.03852 16.5595 3.15391 16.1119 3.34622 15.6644C3.50006 15.2541 3.73083 14.8439 3.92314 14.4709C4.11545 14.2098 4.30775 13.9488 4.50006 13.6504C5.03852 13.0164 5.57699 12.4196 6.50006 12.4569C9.34622 12.5688 9.65391 15.2914 10.1924 16.9324C10.3462 17.4173 10.4231 17.9021 10.3847 18.3497Z" fill="white"/>
<path d="M18.9231 14.993H7.03845V25.2121H18.9231V14.993Z" fill="#DBA2A2"/>
<path d="M18.3078 15.8135H7.73083V24.3916H18.3078V15.8135Z" fill="#F7DADA"/>
<path d="M18.4231 24.5408H7.5769V15.6644H18.4615V24.5408H18.4231ZM7.84613 24.2425H18.1154V15.9254H7.84613V24.2425Z" fill="#F4A966"/>
<defs>
<linearGradient id="paint0_linear" x1="12.4186" y1="14.6955" x2="14.2463" y2="31.514" gradientUnits="userSpaceOnUse">
<stop stop-color="#F9CFBF"/>
<stop offset="1" stop-color="#E293D3"/>
</linearGradient>
</defs>
</svg>
