<svg width="40" height="40" viewBox="0 0 40 40" fill="none" xmlns="http://www.w3.org/2000/svg">
<g clip-path="url(#clip0)">
<path d="M40 18.5713H36.6048C35.9179 10.5186 29.4813 4.08199 21.4286 3.39511V-0.00012207H18.5715V3.39511C10.5188 4.08199 4.08211 10.5186 3.39523 18.5713H0V21.4284H3.39523C4.08211 29.4811 10.5188 35.9177 18.5714 36.6046V39.9999H21.4285V36.6046C29.4812 35.9178 35.9178 29.4811 36.6048 21.4285H40V18.5713ZM21.4286 33.7359V30.476H18.5715V33.7359C12.0953 33.0672 6.93273 27.9046 6.26406 21.4285H9.52391V18.5714H6.26398C6.93266 12.0952 12.0952 6.93261 18.5714 6.26394V9.52378H21.4285V6.26386C27.9047 6.93253 33.0673 12.0951 33.7359 18.5713H30.4761V21.4284H33.7359C33.0673 27.9046 27.9048 33.0672 21.4286 33.7359Z" fill="#FF4F19"/>
<path d="M21.4286 15.238H18.5714V18.5713H15.2382V21.4285H18.5714V24.7618H21.4286V21.4285H24.7619V18.5713H21.4286V15.238Z" fill="#FF4F19"/>
<path d="M36.6048 18.5713C35.9179 10.5186 29.4813 4.08199 21.4286 3.39511V-0.00012207H20V9.52371H21.4286V6.26386C27.9048 6.93253 33.0673 12.0951 33.736 18.5713H30.4762V21.4284H33.736C33.0673 27.9046 27.9048 33.0671 21.4286 33.7358V30.476H20V39.9999H21.4286V36.6046C29.4813 35.9178 35.9179 29.4811 36.6048 21.4285H40V18.5714H36.6048V18.5713Z" fill="#FC0023"/>
<path d="M21.4286 21.4285H24.7619V18.5713H21.4286V15.238H20V24.7618H21.4286V21.4285Z" fill="#FC0023"/>
</g>
<defs>
<clipPath id="clip0">
<rect width="40" height="40" fill="white" transform="translate(0 -0.00012207)"/>
</clipPath>
</defs>
</svg>
